<?xml version="1.0" encoding="UTF-8" standalone="no"?><!DOCTYPE svg PUBLIC "-//W3C//DTD SVG 1.1//EN" "http://www.w3.org/Graphics/SVG/1.1/DTD/svg11.dtd"><svg width="100%" height="100%" viewBox="0 0 2815 499" version="1.1" xmlns="http://www.w3.org/2000/svg" xmlns:xlink="http://www.w3.org/1999/xlink" xml:space="preserve" xmlns:serif="http://www.serif.com/" style="fill-rule:evenodd;clip-rule:evenodd;stroke-linejoin:round;stroke-miterlimit:2;"><g><g><path d="M363,54.179l0,383.642c0,29.902 -24.277,54.179 -54.179,54.179l-254.642,0c-29.902,0 -54.179,-24.277 -54.179,-54.179l-0,-383.642c-0,-29.902 24.277,-54.179 54.179,-54.179l254.642,-0c29.902,-0 54.179,24.277 54.179,54.179Z" style="fill:#7d8084;"/><path d="M299.278,352.436c-27.767,23.434 -63.635,37.564 -102.778,37.564c-88.03,0 -159.5,-71.47 -159.5,-159.5c-0,-88.03 71.47,-159.5 159.5,-159.5c88.03,0 159.5,71.47 159.5,159.5c-0,35.389 -11.55,68.101 -31.083,94.569l26.706,24.67c5.628,-3.44 13.077,-2.895 18.159,1.8l94.113,86.937c11.653,10.766 12.375,28.967 1.609,40.621c-10.956,11.86 -29.479,12.594 -41.34,1.638l-92.987,-85.899c-4.807,-4.44 -6.304,-11.132 -4.368,-16.968l-27.531,-25.432Zm-102.778,-239.436c-64.85,0 -117.5,52.65 -117.5,117.5c-0,64.85 52.65,117.5 117.5,117.5c64.85,0 117.5,-52.65 117.5,-117.5c-0,-64.85 -52.65,-117.5 -117.5,-117.5Z" style="fill:#0094e2;"/><path d="M298.802,365.753c-28.447,21.556 -63.892,34.352 -102.302,34.352c-93.607,-0 -169.605,-75.998 -169.605,-169.605c0,-93.607 75.998,-169.605 169.605,-169.605c93.607,0 169.605,75.998 169.605,169.605c-0,34.38 -10.253,66.385 -27.862,93.122l15.628,14.438c7.847,-1.791 16.416,0.188 22.768,6.056l94.112,86.938c15.751,14.549 16.725,39.149 2.176,54.899c-14.74,15.957 -39.662,16.945 -55.619,2.204l-92.988,-85.898c-5.968,-5.513 -8.799,-13.161 -8.399,-20.692l-17.119,-15.814Zm0.476,-13.317l27.531,25.432c-1.936,5.836 -0.439,12.528 4.368,16.968l92.987,85.899c11.861,10.956 30.384,10.222 41.34,-1.638c10.766,-11.654 10.044,-29.855 -1.609,-40.621l-94.113,-86.937c-5.082,-4.695 -12.531,-5.24 -18.159,-1.8l-26.706,-24.67c19.533,-26.468 31.083,-59.18 31.083,-94.569c-0,-88.03 -71.47,-159.5 -159.5,-159.5c-88.03,0 -159.5,71.47 -159.5,159.5c-0,88.03 71.47,159.5 159.5,159.5c39.143,0 75.011,-14.13 102.778,-37.564Zm-102.778,-239.436c64.85,0 117.5,52.65 117.5,117.5c-0,64.85 -52.65,117.5 -117.5,117.5c-64.85,0 -117.5,-52.65 -117.5,-117.5c-0,-64.85 52.65,-117.5 117.5,-117.5Zm-0,10.105c-59.273,-0 -107.395,48.122 -107.395,107.395c-0,59.273 48.122,107.395 107.395,107.395c59.273,0 107.395,-48.122 107.395,-107.395c0,-59.273 -48.122,-107.395 -107.395,-107.395Z" style="fill:#fff;"/><g><path d="M290,230.5c-0,-51.416 -42.084,-93.5 -93.5,-93.5l-0,93.5l63.898,68.054c18.176,-16.638 29.602,-41.047 29.602,-68.054Z" style="fill:#ffd54f;fill-rule:nonzero;"/><path d="M196.5,230.5l-93.5,0c0,24.408 9.86,47.278 25.446,63.898c17.143,18.176 41.556,29.602 68.054,29.602c24.408,0 46.75,-9.86 63.898,-25.446l-63.898,-68.054Z" style="fill:#ffab00;fill-rule:nonzero;"/><path d="M103,230.5c0,-51.416 42.084,-93.5 93.5,-93.5l-0,93.5l-93.5,0Z" style="fill:#ff3d00;fill-rule:nonzero;"/></g></g><path d="M525.875,343.958l0,-195.916l47.857,-0l-0,77.516l24.46,-0l-0,-77.516l47.974,-0l0,195.916l-47.974,0l-0,-84.015l-24.46,0l-0,84.015l-47.857,0Z" style="fill-rule:nonzero;"/><path d="M721.91,277.195l17.606,0l-8.862,-73.143l-8.744,73.143Zm-54.947,66.763l35.568,-195.916l55.773,-0l35.213,195.916l-43.839,0l-6.144,-39.112l-25.406,-0l-5.908,39.112l-45.257,0Z" style="fill-rule:nonzero;"/><path d="M861.225,225.439l6.381,0c4.333,0 7.917,-0.492 10.753,-1.477c2.836,-0.984 5.081,-2.481 6.735,-4.49c1.654,-2.009 2.816,-4.529 3.486,-7.562c0.67,-3.033 1.004,-6.558 1.004,-10.576c0,-3.072 -0.472,-5.948 -1.418,-8.626c-0.945,-2.678 -2.323,-4.983 -4.135,-6.913c-1.812,-1.93 -3.979,-3.446 -6.499,-4.549c-2.521,-1.103 -5.318,-1.654 -8.39,-1.654l-7.917,-0l0,45.847Zm28.123,118.519l0,-59.673c0,-10.556 -1.733,-17.921 -5.199,-22.097c-3.466,-4.096 -9.611,-6.144 -18.434,-6.144l-4.49,-0l0,87.914l-47.975,0l0,-195.916l53.056,-0c5.199,-0 9.886,0.138 14.062,0.414c4.175,0.275 8.626,0.846 13.352,1.713c6.696,1.26 12.644,3.387 17.843,6.381c5.199,2.993 9.611,7.247 13.234,12.762c2.048,3.623 3.703,8.035 4.963,13.234c1.103,4.569 1.654,9.65 1.654,15.243l0,2.245c-0.472,21.979 -10.043,34.898 -28.713,38.758c11.107,1.024 19.3,5.534 24.578,13.53c5.278,7.996 8.035,18.926 8.271,32.79l0,58.846l-46.202,0Z" style="fill-rule:nonzero;"/><path d="M964.146,343.958l-0,-195.916l51.638,-0c13.47,-0 24.558,1.123 33.263,3.368c8.705,2.245 15.657,5.967 20.856,11.166c5.199,5.199 8.842,11.6 10.93,19.202c2.087,7.602 3.131,17.193 3.131,28.773l0,70.662c0,11.659 -1.044,21.289 -3.131,28.891c-2.088,7.602 -5.731,14.022 -10.93,19.261c-5.199,5.238 -12.151,8.98 -20.856,11.225c-8.705,2.245 -19.753,3.368 -33.145,3.368l-51.756,0Zm47.975,-33.086l4.49,0c4.096,0 7.346,-0.335 9.748,-1.004c2.403,-0.67 4.215,-1.871 5.436,-3.604c1.221,-1.733 2.009,-3.644 2.363,-5.731c0.355,-2.088 0.532,-5.022 0.532,-8.804l-0,-91.931c-0,-3.781 -0.177,-6.696 -0.532,-8.744c-0.354,-2.048 -1.142,-3.9 -2.363,-5.554c-1.221,-1.654 -3.033,-2.797 -5.436,-3.427c-2.402,-0.63 -5.652,-0.945 -9.748,-0.945l-4.49,-0l-0,129.744Z" style="fill-rule:nonzero;"/><path d="M1173.89,343.958l0,-195.916l51.638,-0c13.471,-0 24.558,1.123 33.263,3.368c8.705,2.245 15.657,5.967 20.856,11.166c5.199,5.199 8.843,11.6 10.93,19.202c2.088,7.602 3.131,17.193 3.131,28.773l0,70.662c0,11.659 -1.043,21.289 -3.131,28.891c-2.087,7.602 -5.731,14.022 -10.93,19.261c-5.199,5.238 -12.151,8.98 -20.856,11.225c-8.705,2.245 -19.753,3.368 -33.145,3.368l-51.756,0Zm47.975,-33.086l4.49,0c4.096,0 7.346,-0.335 9.748,-1.004c2.403,-0.67 4.215,-1.871 5.436,-3.604c1.221,-1.733 2.009,-3.644 2.363,-5.731c0.355,-2.088 0.532,-5.022 0.532,-8.804l0,-91.931c0,-3.781 -0.177,-6.696 -0.532,-8.744c-0.354,-2.048 -1.142,-3.9 -2.363,-5.554c-1.221,-1.654 -3.033,-2.797 -5.436,-3.427c-2.402,-0.63 -5.652,-0.945 -9.748,-0.945l-4.49,-0l-0,129.744Z" style="fill-rule:nonzero;"/><path d="M1367.68,225.439l6.381,0c4.333,0 7.917,-0.492 10.753,-1.477c2.836,-0.984 5.081,-2.481 6.735,-4.49c1.655,-2.009 2.817,-4.529 3.486,-7.562c0.67,-3.033 1.005,-6.558 1.005,-10.576c-0,-3.072 -0.473,-5.948 -1.418,-8.626c-0.946,-2.678 -2.324,-4.983 -4.136,-6.913c-1.812,-1.93 -3.978,-3.446 -6.499,-4.549c-2.521,-1.103 -5.318,-1.654 -8.39,-1.654l-7.917,-0l0,45.847Zm28.123,118.519l0,-59.673c0,-10.556 -1.733,-17.921 -5.199,-22.097c-3.466,-4.096 -9.611,-6.144 -18.434,-6.144l-4.49,-0l0,87.914l-47.974,0l-0,-195.916l53.055,-0c5.199,-0 9.887,0.138 14.062,0.414c4.175,0.275 8.626,0.846 13.352,1.713c6.696,1.26 12.644,3.387 17.843,6.381c5.199,2.993 9.611,7.247 13.234,12.762c2.049,3.623 3.703,8.035 4.963,13.234c1.103,4.569 1.655,9.65 1.655,15.243l-0,2.245c-0.473,21.979 -10.044,34.898 -28.714,38.758c11.107,1.024 19.3,5.534 24.578,13.53c5.278,7.996 8.035,18.926 8.271,32.79l0,58.846l-46.202,0Z" style="fill-rule:nonzero;"/><rect x="1470.71" y="148.042" width="47.856" height="195.916" style="fill-rule:nonzero;"/><path d="M1571.15,343.958l-32.968,-195.916l40.294,-0l18.197,129.626l16.661,-129.626l43.366,-0l-33.558,195.916l-51.992,0Z" style="fill-rule:nonzero;"/><path d="M1675.85,343.958l0,-195.916l91.695,-0l0,32.141l-43.72,-0l-0,43.72l32.613,0l-0,33.323l-32.613,-0l-0,54.71l44.193,-0l0,32.022l-92.168,0Z" style="fill-rule:nonzero;"/><path d="M1850.26,343.958l3.191,-195.916l52.228,-0l17.843,100.794l19.851,-100.794l50.102,-0l3.19,195.916l-33.322,0l-3.781,-127.026l-19.97,127.026l-30.604,0l-21.624,-128.208l-3.191,128.208l-33.913,0Z" style="fill-rule:nonzero;"/><path d="M2070.63,277.195l17.607,0l-8.863,-73.143l-8.744,73.143Zm-54.946,66.763l35.567,-195.916l55.774,-0l35.213,195.916l-43.839,0l-6.145,-39.112l-25.405,-0l-5.908,39.112l-45.257,0Z" style="fill-rule:nonzero;"/><path d="M2161.97,343.958l0,-195.916l34.031,-0l35.804,83.896l-0,-83.896l39.585,-0l-0,195.916l-32.732,0l-35.567,-92.168l0,92.168l-41.121,0Z" style="fill-rule:nonzero;"/><path d="M2346.08,277.195l17.606,0l-8.862,-73.143l-8.744,73.143Zm-54.947,66.763l35.568,-195.916l55.773,-0l35.213,195.916l-43.839,0l-6.144,-39.112l-25.406,-0l-5.908,39.112l-45.257,0Z" style="fill-rule:nonzero;"/><path d="M2489.88,347.03c-10.162,0 -18.867,-1.654 -26.114,-4.963c-7.247,-3.308 -12.919,-8.074 -17.016,-14.297c-4.096,-6.224 -7.07,-13.314 -8.921,-21.27c-1.851,-7.956 -2.777,-17.134 -2.777,-27.532l0,-65.936c0,-10.635 1.044,-19.989 3.131,-28.064c2.088,-8.074 5.436,-15.164 10.044,-21.269c4.609,-6.105 10.891,-10.753 18.848,-13.944c7.956,-3.19 17.527,-4.785 28.713,-4.785c8.902,-0 16.76,0.965 23.574,2.895c6.814,1.93 12.427,4.549 16.839,7.858c4.411,3.308 8.035,7.424 10.871,12.348c2.836,4.923 4.844,10.182 6.026,15.775c1.182,5.593 1.773,11.777 1.773,18.551l-0,14.062l-47.148,-0l0,-18.788c0,-2.206 -0.039,-3.998 -0.118,-5.377c-0.079,-1.378 -0.315,-3.072 -0.709,-5.081c-0.394,-2.008 -0.965,-3.584 -1.713,-4.726c-0.749,-1.142 -1.871,-2.147 -3.368,-3.013c-1.497,-0.867 -3.309,-1.3 -5.436,-1.3c-2.599,-0 -4.766,0.591 -6.499,1.772c-1.733,1.182 -2.974,2.856 -3.722,5.022c-0.748,2.167 -1.241,4.215 -1.477,6.145c-0.236,1.93 -0.354,4.195 -0.354,6.794l-0,96.068c-0,2.442 0.197,4.706 0.59,6.794c0.394,2.088 1.044,4.155 1.95,6.204c0.906,2.048 2.285,3.682 4.136,4.903c1.851,1.221 4.076,1.832 6.676,1.832c3.387,0 6.204,-1.103 8.449,-3.309c2.245,-2.205 3.742,-4.706 4.49,-7.503c0.748,-2.797 1.123,-5.81 1.123,-9.04l-0,-25.523l-15.716,0l-0,-27.532l58.846,-0l-0,103.157l-32.023,0l-2.363,-14.298c-5.751,11.58 -15.952,17.37 -30.605,17.37Z" style="fill-rule:nonzero;"/><path d="M2581.46,343.958l0,-195.916l91.696,-0l-0,32.141l-43.721,-0l0,43.72l32.613,0l0,33.323l-32.613,-0l0,54.71l44.193,-0l0,32.022l-92.168,0Z" style="fill-rule:nonzero;"/><path d="M2740.62,225.439l6.381,0c4.333,0 7.917,-0.492 10.753,-1.477c2.836,-0.984 5.081,-2.481 6.736,-4.49c1.654,-2.009 2.816,-4.529 3.485,-7.562c0.67,-3.033 1.005,-6.558 1.005,-10.576c-0,-3.072 -0.473,-5.948 -1.418,-8.626c-0.945,-2.678 -2.324,-4.983 -4.136,-6.913c-1.812,-1.93 -3.978,-3.446 -6.499,-4.549c-2.521,-1.103 -5.317,-1.654 -8.39,-1.654l-7.917,-0l0,45.847Zm28.123,118.519l0,-59.673c0,-10.556 -1.733,-17.921 -5.199,-22.097c-3.466,-4.096 -9.61,-6.144 -18.433,-6.144l-4.491,-0l0,87.914l-47.974,0l-0,-195.916l53.055,-0c5.2,-0 9.887,0.138 14.062,0.414c4.175,0.275 8.626,0.846 13.353,1.713c6.695,1.26 12.643,3.387 17.842,6.381c5.2,2.993 9.611,7.247 13.235,12.762c2.048,3.623 3.702,8.035 4.963,13.234c1.102,4.569 1.654,9.65 1.654,15.243l-0,2.245c-0.473,21.979 -10.044,34.898 -28.714,38.758c11.107,1.024 19.3,5.534 24.578,13.53c5.278,7.996 8.035,18.926 8.272,32.79l-0,58.846l-46.203,0Z" style="fill-rule:nonzero;"/></g><path d="M324.5,455.209l0,6.582c0,5.083 -4.126,9.209 -9.209,9.209l-253.582,0c-5.083,0 -9.209,-4.126 -9.209,-9.209l-0,-6.582c-0,-5.083 4.126,-9.209 9.209,-9.209l253.582,0c5.083,0 9.209,4.126 9.209,9.209Z" style="fill:#a9abad;"/></svg>